<svg preserveAspectRatio="none" overflow="visible" style="display: block;" width="50" height="34" viewBox="0 0 50 34" fill="none" xmlns="http://www.w3.org/2000/svg">
<g id="SocialIcon">
<path id="Vector" d="M33.0378 9.42504C31.6128 8.76073 30.0699 8.27858 28.4627 8C28.4344 8.00043 28.4074 8.012 28.3877 8.03214C28.1949 8.38572 27.9698 8.84645 27.8198 9.20003C26.115 8.9431 24.3815 8.9431 22.6768 9.20003C22.5268 8.83574 22.3018 8.38572 22.0983 8.03214C22.0875 8.01071 22.0554 8 22.0233 8C20.4161 8.27858 18.8839 8.76073 17.4481 9.42504C17.4374 9.42504 17.4267 9.43575 17.416 9.44647C14.5016 13.8073 13.698 18.0503 14.0945 22.2504C14.0945 22.2718 14.1052 22.2932 14.1266 22.304C16.0552 23.7183 17.9089 24.5755 19.741 25.1433C19.7732 25.154 19.8053 25.1433 19.8161 25.1219C20.2446 24.5326 20.6304 23.9111 20.9625 23.2576C20.9839 23.2147 20.9625 23.1718 20.9197 23.1611C20.3089 22.9254 19.7303 22.6468 19.1625 22.3254C19.1196 22.304 19.1196 22.2397 19.1517 22.2075C19.2696 22.1218 19.3875 22.0254 19.5053 21.9397C19.5268 21.9182 19.5589 21.9182 19.5803 21.929C23.2661 23.6111 27.2413 23.6111 30.8842 21.929C30.9056 21.9182 30.9378 21.9182 30.9592 21.9397C31.0771 22.0361 31.1949 22.1218 31.3128 22.2182C31.3557 22.2504 31.3556 22.3147 31.3021 22.3361C30.7449 22.6683 30.1556 22.9361 29.5449 23.1718C29.502 23.1826 29.4913 23.2361 29.502 23.2683C29.8449 23.9219 30.2306 24.5433 30.6485 25.1326C30.6806 25.1433 30.7128 25.154 30.7449 25.1433C32.5878 24.5755 34.4415 23.7183 36.3701 22.304C36.3915 22.2932 36.4022 22.2718 36.4022 22.2504C36.8737 17.3967 35.6201 13.1859 33.0807 9.44647C33.07 9.43575 33.0593 9.42504 33.0378 9.42504ZM21.5197 19.6896C20.4161 19.6896 19.4946 18.6717 19.4946 17.4181C19.4946 16.1645 20.3946 15.1466 21.5197 15.1466C22.6554 15.1466 23.5554 16.1752 23.5447 17.4181C23.5447 18.6717 22.6447 19.6896 21.5197 19.6896ZM28.9877 19.6896C27.8841 19.6896 26.9627 18.6717 26.9627 17.4181C26.9627 16.1645 27.8627 15.1466 28.9877 15.1466C30.1235 15.1466 31.0235 16.1752 31.0128 17.4181C31.0128 18.6717 30.1235 19.6896 28.9877 19.6896Z" fill="#F2F7FF"/>
</g>
</svg>
